<?xml version="1.0" encoding="UTF-8" standalone="no"?>
<!-- Created with Inkscape (http://www.inkscape.org/) -->

<svg
   xmlns:dc="http://purl.org/dc/elements/1.1/"
   xmlns:cc="http://creativecommons.org/ns#"
   xmlns:rdf="http://www.w3.org/1999/02/22-rdf-syntax-ns#"
   xmlns:svg="http://www.w3.org/2000/svg"
   xmlns="http://www.w3.org/2000/svg"
   xmlns:sodipodi="http://sodipodi.sourceforge.net/DTD/sodipodi-0.dtd"
   xmlns:inkscape="http://www.inkscape.org/namespaces/inkscape"
   width="19.413cm"
   height="15cm"
   viewBox="0 0 194.13 150"
   version="1.1"
   id="svg8"
   inkscape:version="0.92.3 (2405546, 2018-03-11)"
   sodipodi:docname="xbox-controller-black.svg">
  <defs
     id="defs2" />
  <sodipodi:namedview
     id="base"
     pagecolor="#ffffff"
     bordercolor="#666666"
     borderopacity="1.0"
     inkscape:pageopacity="0.0"
     inkscape:pageshadow="2"
     inkscape:zoom="0.9899495"
     inkscape:cx="239.54536"
     inkscape:cy="338.95724"
     inkscape:document-units="mm"
     inkscape:current-layer="layer1"
     showgrid="false"
     inkscape:window-width="1853"
     inkscape:window-height="1025"
     inkscape:window-x="67"
     inkscape:window-y="27"
     inkscape:window-maximized="1"
     units="cm"
     inkscape:snap-intersection-paths="true" />
  <metadata
     id="metadata5">
    <rdf:RDF>
      <cc:Work
         rdf:about="">
        <dc:format>image/svg+xml</dc:format>
        <dc:type
           rdf:resource="http://purl.org/dc/dcmitype/StillImage" />
        <dc:title></dc:title>
      </cc:Work>
    </rdf:RDF>
  </metadata>
  <g
     inkscape:label="Layer 1"
     inkscape:groupmode="layer"
     id="layer1"
     transform="translate(0,-147)">
    <path
       style="fill:#1c1c1c;fill-opacity:1;stroke:none;stroke-width:0.26458332px;stroke-linecap:butt;stroke-linejoin:miter;stroke-opacity:1"
       d="m 64.683094,168.98237 -5.879745,1.06918 -6.815603,1.73737 -8.018116,3.34088 -6.414079,3.74137 -2.940389,3.34088 -7.216098,17.77359 -6.280752,18.30793 -4.811076,17.90692 -1.60352,10.42365 -0.534334,6.54792 0.133325,6.01359 1.069186,4.94491 2.13837,4.94441 2.538863,3.87521 2.939873,2.93987 3.207555,2.2717 4.944401,1.8712 2.271697,-0.66817 2.939873,-2.13837 3.207554,-3.34089 4.008541,-5.21156 5.880261,-7.75095 5.879745,-7.08277 2.672705,-2.53887 3.474725,-2.27169 4.14238,-0.93534 3.608049,-0.53486 h 27.837581 27.837574 l 3.60805,0.53486 4.14238,0.93534 3.47473,2.27169 2.6727,2.53887 5.87975,7.08277 5.88026,7.75095 4.00854,5.21156 3.20756,3.34089 2.93987,2.13837 2.27169,0.66817 4.94441,-1.8712 3.20755,-2.2717 2.93987,-2.93987 2.53887,-3.87521 2.13837,-4.94441 1.06918,-4.94491 0.13333,-6.01359 -0.53434,-6.54792 -1.60352,-10.42365 -4.81107,-17.90692 -6.28075,-18.30793 -7.2161,-17.77359 -2.94039,-3.34088 -6.41408,-3.74137 -8.01812,-3.34088 -6.8156,-1.73737 -5.87974,-1.06918 -2.00453,0.53433 -1.4702,0.66818 -2.93987,0.66818 -1.33635,0.401 -3.07372,-0.13332 H 97.064066 75.507757 l -3.073715,0.13332 -1.336352,-0.401 -2.939873,-0.66818 -1.470194,-0.66818 z"
       id="path828"
       inkscape:connector-curvature="0" />
    <path
       style="opacity:1;vector-effect:none;fill:#181818;fill-opacity:1;stroke:none;stroke-width:0.26458332px;stroke-linecap:butt;stroke-linejoin:miter;stroke-miterlimit:4;stroke-dasharray:none;stroke-dashoffset:0;stroke-opacity:1"
       d="m 65.417932,164.30513 -3.34088,0.46768 -10.62364,2.73937 -6.214092,2.73988 -4.209563,2.93987 -0.401007,0.73484 -1.774053,4.18631 5.114933,-2.98328 8.018116,-3.34088 6.815603,-1.73737 5.879745,-1.06918 2.004529,0.53433 1.470194,0.66818 2.939873,0.66818 1.336352,0.401 3.073715,-0.13332 h 21.556309 21.556304 l 3.07372,0.13332 1.33635,-0.401 2.93987,-0.66818 1.4702,-0.66818 2.00453,-0.53433 5.87974,1.06918 6.8156,1.73737 8.01812,3.34088 5.11493,2.98328 -1.77405,-4.18631 -0.40101,-0.73484 -4.20956,-2.93987 -6.21409,-2.73988 -10.62364,-2.73937 -3.34088,-0.46768 -1.6707,0.13385 -1.73736,0.66817 -4.00906,2.67271 H 119.95673 97.064066 74.171404 72.835052 l -4.009059,-2.67271 -1.73736,-0.66817 z"
       id="path844"
       inkscape:connector-curvature="0" />
    <circle
       style="opacity:1;vector-effect:none;fill:#373737;fill-opacity:1;stroke:#252525;stroke-width:0.32297412px;stroke-linecap:butt;stroke-linejoin:miter;stroke-miterlimit:4;stroke-dasharray:none;stroke-dashoffset:0;stroke-opacity:1"
       id="path899"
       cx="53.858746"
       cy="196.17706"
       r="11.826676" />
    <circle
       r="10.072721"
       cy="196.17706"
       cx="53.858746"
       id="circle901"
       style="opacity:1;vector-effect:none;fill:#131313;fill-opacity:1;stroke:none;stroke-width:0.28775305px;stroke-linecap:butt;stroke-linejoin:miter;stroke-miterlimit:4;stroke-dasharray:none;stroke-dashoffset:0;stroke-opacity:1" />
    <circle
       r="11.826676"
       cy="221.8047"
       cx="118.66192"
       id="circle961"
       style="opacity:1;vector-effect:none;fill:#373737;fill-opacity:1;stroke:#252525;stroke-width:0.32297412px;stroke-linecap:butt;stroke-linejoin:miter;stroke-miterlimit:4;stroke-dasharray:none;stroke-dashoffset:0;stroke-opacity:1" />
    <circle
       style="opacity:1;vector-effect:none;fill:#131313;fill-opacity:1;stroke:none;stroke-width:0.28775305px;stroke-linecap:butt;stroke-linejoin:miter;stroke-miterlimit:4;stroke-dasharray:none;stroke-dashoffset:0;stroke-opacity:1"
       id="circle963"
       cx="118.66192"
       cy="221.8047"
       r="10.072721" />
    <g
       transform="matrix(0.03454376,0,0,0.0345248,90.737843,173.61835)"
       id="g4146"
       style="fill:#f0eff3;fill-opacity:1">
      <path
         inkscape:connector-curvature="0"
         id="path4148"
         d="M 169.18811,359.44924 C 140.50497,356.70211 111.4651,346.40125 86.518706,330.1252 65.614374,316.48637 60.893704,310.87967 60.893704,299.69061 c 0,-22.47524 24.711915,-61.84014 66.992496,-106.71584 24.01246,-25.48631 57.46022,-55.36001 61.0775,-54.55105 7.0309,1.57238 63.25048,56.41053 84.29655,82.2252 33.28077,40.82148 48.58095,74.24535 40.808,89.14682 -5.9087,11.32753 -42.57224,33.4669 -69.50775,41.97242 -22.19984,7.01011 -51.35538,9.9813 -75.37239,7.68108 z M 32.660004,276.3228 C 15.288964,249.67326 6.5125436,223.43712 2.2752336,185.49086 c -1.39917002,-12.53 -0.89778,-19.69701 3.17715,-45.41515 5.0788204,-32.05404 23.3330104,-69.136381 45.2671304,-91.957616 9.34191,-9.719732 10.17624,-9.956543 21.56341,-6.120482 13.828357,4.658436 28.595936,14.857457 51.498366,35.56661 l 13.36254,12.082873 -7.2969,8.96431 C 95.97448,140.22403 60.217254,199.2085 46.741444,235.70071 c -7.32599,19.83862 -10.28084,39.75281 -7.12868,48.04363 2.12818,5.59752 0.17339,3.51093 -6.95276,-7.42154 z m 304.915426,4.53255 c 1.71605,-8.37719 -0.4544,-23.76257 -5.5413,-39.28002 -11.01667,-33.60598 -47.83964,-96.12421 -81.65282,-138.63054 L 239.73699,89.563875 251.25285,78.989784 c 15.03631,-13.806637 25.47602,-22.073835 36.74025,-29.094513 8.88881,-5.540156 21.59109,-10.444558 27.05113,-10.444558 3.36626,0 15.21723,12.298726 24.78421,25.720611 14.81725,20.787711 25.71782,45.986976 31.24045,72.219686 3.56833,16.9498 3.8657,53.23126 0.57486,70.13935 -2.70068,13.87582 -8.40314,31.87484 -13.9661,44.08195 -4.16823,9.14657 -14.53521,26.91044 -19.0783,32.69074 -2.33569,2.97175 -2.33761,2.96527 -1.02393,-3.4477 z M 172.25917,33.104812 c -15.60147,-7.922671 -39.6696,-16.427164 -52.96493,-18.715209 -4.66097,-0.802124 -12.61193,-1.249474 -17.6688,-0.994114 -10.969613,0.55394 -10.479662,-0.0197 7.11783,-8.3336652 14.63023,-6.912081 26.83386,-10.976696 43.40044,-14.455218 18.6362,-3.9130858 53.66559,-3.9590088 72.00507,-0.0944 19.80818,4.174105 43.13297,12.854085 56.27623,20.9423862 l 3.90633,2.403927 -8.96247,-0.452584 c -17.81002,-0.899366 -43.76575,6.295879 -71.63269,19.857459 -8.40538,4.090523 -15.71788,7.357511 -16.25,7.25997 -0.53211,-0.09754 -7.38426,-3.43589 -15.22701,-7.418555 z"
         style="fill:#f0eff3;fill-opacity:1" />
    </g>
  </g>
</svg>
