<?xml version="1.0" encoding="UTF-8" standalone="no"?>
<!-- Created with Inkscape (http://www.inkscape.org/) -->

<svg
   xmlns:dc="http://purl.org/dc/elements/1.1/"
   xmlns:cc="http://creativecommons.org/ns#"
   xmlns:rdf="http://www.w3.org/1999/02/22-rdf-syntax-ns#"
   xmlns:svg="http://www.w3.org/2000/svg"
   xmlns="http://www.w3.org/2000/svg"
   xmlns:sodipodi="http://sodipodi.sourceforge.net/DTD/sodipodi-0.dtd"
   xmlns:inkscape="http://www.inkscape.org/namespaces/inkscape"
   width="2.6930654cm"
   height="2.6930656cm"
   viewBox="0 0 26.930654 26.930657"
   version="1.1"
   id="svg8"
   inkscape:version="0.92.3 (2405546, 2018-03-11)"
   sodipodi:docname="xbox-dpad.svg">
  <defs
     id="defs2" />
  <sodipodi:namedview
     id="base"
     pagecolor="#ffffff"
     bordercolor="#666666"
     borderopacity="1.0"
     inkscape:pageopacity="0.0"
     inkscape:pageshadow="2"
     inkscape:zoom="5.6568542"
     inkscape:cx="1.4762501"
     inkscape:cy="52.894542"
     inkscape:document-units="mm"
     inkscape:current-layer="layer1"
     showgrid="false"
     inkscape:window-width="1853"
     inkscape:window-height="1025"
     inkscape:window-x="67"
     inkscape:window-y="27"
     inkscape:window-maximized="1"
     units="cm"
     inkscape:snap-intersection-paths="true"
     fit-margin-top="0"
     fit-margin-left="0"
     fit-margin-right="0"
     fit-margin-bottom="0" />
  <metadata
     id="metadata5">
    <rdf:RDF>
      <cc:Work
         rdf:about="">
        <dc:format>image/svg+xml</dc:format>
        <dc:type
           rdf:resource="http://purl.org/dc/dcmitype/StillImage" />
        <dc:title />
      </cc:Work>
    </rdf:RDF>
  </metadata>
  <g
     inkscape:label="Layer 1"
     inkscape:groupmode="layer"
     id="layer1"
     transform="translate(-61.503739,-210.10054)">
    <path
       style="opacity:1;vector-effect:none;fill:#131313;fill-opacity:1;stroke:none;stroke-width:1.08757055px;stroke-linecap:butt;stroke-linejoin:miter;stroke-miterlimit:4;stroke-dasharray:none;stroke-dashoffset:0;stroke-opacity:1"
       d="M 283.34766,238.49023 A 50.893228,50.893228 0 0 0 265,241.91797 v 27.26172 c 0,1.02801 -0.82745,1.85547 -1.85547,1.85547 h -27.20898 a 50.893228,50.893228 0 0 0 -3.48047,18.34765 50.893228,50.893228 0 0 0 3.42773,18.34766 h 27.34961 c 1.02802,0 1.85547,0.82745 1.85547,1.85547 v 27.24218 a 50.893228,50.893228 0 0 0 18.25977,3.44727 50.893228,50.893228 0 0 0 18.34765,-3.42773 v -27.26172 c 0,-1.02802 0.82746,-1.85547 1.85547,-1.85547 h 27.20899 a 50.893228,50.893228 0 0 0 3.48046,-18.34766 50.893228,50.893228 0 0 0 -3.39843,-18.25976 h -27.29102 c -1.02801,0 -1.85547,-0.82746 -1.85547,-1.85547 V 241.9707 a 50.893228,50.893228 0 0 0 -18.34765,-3.48047 z"
       transform="matrix(0.26458333,0,0,0.26458333,0,147)"
       id="path914"
       inkscape:connector-curvature="0" />
  </g>
</svg>
