<?xml version="1.0" encoding="UTF-8" standalone="no"?>
<!-- Created with Inkscape (http://www.inkscape.org/) -->

<svg
   xmlns:dc="http://purl.org/dc/elements/1.1/"
   xmlns:cc="http://creativecommons.org/ns#"
   xmlns:rdf="http://www.w3.org/1999/02/22-rdf-syntax-ns#"
   xmlns:svg="http://www.w3.org/2000/svg"
   xmlns="http://www.w3.org/2000/svg"
   xmlns:sodipodi="http://sodipodi.sourceforge.net/DTD/sodipodi-0.dtd"
   xmlns:inkscape="http://www.inkscape.org/namespaces/inkscape"
   width="2.6930654cm"
   height="2.6930656cm"
   viewBox="0 0 26.930654 26.930657"
   version="1.1"
   id="svg8"
   inkscape:version="0.92.3 (2405546, 2018-03-11)"
   sodipodi:docname="xbox-dpad-left.svg">
  <defs
     id="defs2" />
  <sodipodi:namedview
     id="base"
     pagecolor="#ffffff"
     bordercolor="#666666"
     borderopacity="1.0"
     inkscape:pageopacity="0.0"
     inkscape:pageshadow="2"
     inkscape:zoom="5.6568542"
     inkscape:cx="12.082852"
     inkscape:cy="52.010659"
     inkscape:document-units="mm"
     inkscape:current-layer="layer1"
     showgrid="false"
     inkscape:window-width="1853"
     inkscape:window-height="1025"
     inkscape:window-x="67"
     inkscape:window-y="27"
     inkscape:window-maximized="1"
     units="cm"
     inkscape:snap-intersection-paths="true"
     fit-margin-top="0"
     fit-margin-left="0"
     fit-margin-right="0"
     fit-margin-bottom="0" />
  <metadata
     id="metadata5">
    <rdf:RDF>
      <cc:Work
         rdf:about="">
        <dc:format>image/svg+xml</dc:format>
        <dc:type
           rdf:resource="http://purl.org/dc/dcmitype/StillImage" />
        <dc:title />
      </cc:Work>
    </rdf:RDF>
  </metadata>
  <g
     inkscape:label="Layer 1"
     inkscape:groupmode="layer"
     id="layer1"
     transform="translate(-61.503739,-210.10054)">
    <path
       style="opacity:1;vector-effect:none;fill:#131313;fill-opacity:1;stroke:none;stroke-width:0.28775305px;stroke-linecap:butt;stroke-linejoin:miter;stroke-miterlimit:4;stroke-dasharray:none;stroke-dashoffset:0;stroke-opacity:1"
       d="m 61.503735,223.56587 a 13.4655,13.4655 0 0 0 0.906923,4.85449 h 7.212997 c 0.271994,0 0.490926,0.21893 0.490926,0.49092 v 7.19905 a 13.4655,13.4655 0 0 0 4.854483,0.92087 13.4655,13.4655 0 0 0 4.854484,-0.90692 v -7.23625 c 0,-0.272 0.21893,-0.49093 0.490927,-0.49093 h 7.207827 a 13.4655,13.4655 0 0 0 0.91209,-4.83123 13.4655,13.4655 0 0 0 -0.90692,-4.85448 h -7.212997 c -0.271997,0 -0.490927,-0.21893 -0.490927,-0.49093 v -7.19904 a 13.4655,13.4655 0 0 0 -4.854484,-0.92087 13.4655,13.4655 0 0 0 -4.831229,0.89916 v 7.22075 c 0,0.272 -0.218932,0.49093 -0.490926,0.49093 H 62.42461 a 13.4655,13.4655 0 0 0 -0.920875,4.85448 z"
       id="path914"
       inkscape:connector-curvature="0" />
    <path
       inkscape:connector-curvature="0"
       style="fill:#696969;stroke:none;stroke-width:0.26458332px;stroke-linecap:butt;stroke-linejoin:miter;stroke-opacity:1"
       d="m 61.544044,224.36634 a 13.465499,13.465499 0 0 0 0.866613,4.05402 h 7.212997 c 0.141168,0 0.267176,0.0598 0.356567,0.15451 l 4.983675,-4.97592 -5.007446,-4.9997 c -0.08455,0.0691 -0.191334,0.11214 -0.309542,0.11214 H 62.42461 a 13.465499,13.465499 0 0 0 -0.880566,3.87935 z"
       id="path833" />
  </g>
</svg>
